<svg viewBox="0 0 300 98.7494" width="5000" height="1645.8233333333333" xmlns="http://www.w3.org/2000/svg" xmlns:xlink="http://www.w3.org/1999/xlink" preserveAspectRatio="none"><defs></defs><style>.a0QRBMvWAhcolors-0 {fill:#DFDFDF;fill-opacity:0.49;}.aD6z1nYkhcolor {fill:#DFDFDF;fill-opacity:1;}.shape {fill:#DFDFDF;fill-opacity:1;}.shapeStroke-str {stroke:#DFDFDF;stroke-opacity:1;}</style><g opacity="1" transform="rotate(0 280.7743 48.7337)">
<svg width="19.2257" height="1.2817" x="280.7743" y="48.7337" version="1.1" preserveAspectRatio="none" viewBox="0 0 19.2257 1.2817">
  <rect x="0" y="0" width="19.2257" height="1.2817" class="shape shapeStroke-str" style="stroke-width:0;" rx="0%" ry="0%" />
</svg>
</g><g opacity="1" transform="rotate(0 32.0429 33.35319999999999)">
<svg width="235.9143" height="32.0429" x="32.0429" y="33.35319999999999" version="1.1" preserveAspectRatio="none" viewBox="0.84 -19.48 147.64 20.0533">
  <g transform="matrix(1 0 0 1 0 0)" class="aD6z1nYkhcolor"><path d="M21.80-18.72Q21.88-18.72 21.88-18.48Q21.88-18.24 21.80-18.24L21.80-18.24Q20.28-18.24 19.60-17.28Q18.92-16.32 18.92-14.12L18.92-14.12L18.92 0.44Q18.92 0.52 18.72 0.56Q18.52 0.60 18.44 0.52L18.44 0.52L4.96-15.44L4.64-15.80L4.64-4.60Q4.64-2.40 5.28-1.44Q5.92-0.48 7.44-0.48L7.44-0.48Q7.56-0.48 7.56-0.24Q7.56 0 7.44 0L7.44 0Q6.56 0 6.08-0.04L6.08-0.04L4.28-0.08L2.52-0.04Q2 0 1.04 0L1.04 0Q0.92 0 0.92-0.24Q0.92-0.48 1.04-0.48L1.04-0.48Q2.56-0.48 3.22-1.44Q3.88-2.40 3.88-4.60L3.88-4.60L3.88-16.64Q3.04-17.48 2.34-17.86Q1.64-18.24 0.92-18.24L0.92-18.24Q0.84-18.24 0.84-18.48Q0.84-18.72 0.92-18.72L0.92-18.72L3.16-18.68Q3.56-18.68 4.08-18.70Q4.60-18.72 5.80-18.72L5.80-18.72Q6.12-18.72 6.30-18.54Q6.48-18.36 6.84-17.84L6.84-17.84Q7.20-17.28 7.72-16.64L7.72-16.64L18.12-4.20L18.12-14.12Q18.12-16.36 17.48-17.30Q16.84-18.24 15.32-18.24L15.32-18.24Q15.24-18.24 15.24-18.48Q15.24-18.72 15.32-18.72L15.32-18.72L16.72-18.68Q17.84-18.60 18.48-18.60L18.48-18.60Q19.16-18.60 20.28-18.68L20.28-18.68L21.80-18.72Z M44.96-0.48Q45.16-0.48 45.16-0.24Q45.16 0 44.96 0L44.96 0Q44.20 0 42.60-0.08L42.60-0.08Q40.92-0.16 40.20-0.16L40.20-0.16Q39.60-0.16 38.40-0.08L38.40-0.08Q37.28 0 36.68 0L36.68 0Q36.52 0 36.52-0.24Q36.52-0.48 36.68-0.48L36.68-0.48Q37.68-0.48 38.14-0.74Q38.60-1 38.60-1.56L38.60-1.56Q38.60-2.28 38.08-3.36L38.08-3.36L35.48-8.96L30.16-8.96L28.52-4.92Q27.84-3.24 27.84-2.36L27.84-2.36Q27.84-1.36 28.54-0.92Q29.24-0.48 30.72-0.48L30.72-0.48Q30.92-0.48 30.92-0.24Q30.92 0 30.72 0L30.72 0Q30.12 0 29.08-0.08L29.08-0.08Q27.96-0.16 27-0.16L27-0.16Q26-0.16 24.64-0.08L24.64-0.08Q23.44 0 22.72 0L22.72 0Q22.52 0 22.52-0.24Q22.52-0.48 22.72-0.48L22.72-0.48Q23.96-0.48 24.70-0.84Q25.44-1.20 26.06-2.18Q26.68-3.16 27.56-5.28L27.56-5.28L33.40-19.32Q33.48-19.48 33.64-19.48Q33.80-19.48 33.88-19.32L33.88-19.32L40.28-5.48Q41.32-3.28 41.96-2.26Q42.60-1.24 43.26-0.86Q43.92-0.48 44.96-0.48L44.96-0.48ZM32.64-15.04L30.52-9.80L35.08-9.80L32.64-15.04Z M67.04-0.48Q67.16-0.48 67.16-0.24Q67.16 0 67.04 0L67.04 0L61.76 0Q61.12 0 59.36-2.40Q57.60-4.80 55.20-9L55.20-9Q54.36-8.88 53.52-8.88L53.52-8.88Q52.68-8.88 52.24-8.92L52.24-8.92L52.24-3.24Q52.24-2 52.44-1.44Q52.64-0.88 53.20-0.68Q53.76-0.48 55.04-0.48L55.04-0.48Q55.16-0.48 55.16-0.24Q55.16 0 55.04 0L55.04 0Q53.92 0 53.28-0.04L53.28-0.04L50.72-0.08L48.24-0.04Q47.56 0 46.36 0L46.36 0Q46.28 0 46.28-0.24Q46.28-0.48 46.36-0.48L46.36-0.48Q47.64-0.48 48.22-0.68Q48.80-0.88 49.02-1.46Q49.24-2.04 49.24-3.24L49.24-3.24L49.24-15.48Q49.24-16.68 49.02-17.24Q48.80-17.80 48.22-18.02Q47.64-18.24 46.44-18.24L46.44-18.24Q46.32-18.24 46.32-18.48Q46.32-18.72 46.44-18.72L46.44-18.72L48.28-18.68Q49.80-18.60 50.72-18.60L50.72-18.60Q51.48-18.60 52.10-18.64Q52.72-18.68 53.16-18.72L53.16-18.72Q54.40-18.84 55.52-18.84L55.52-18.84Q58.28-18.84 59.74-17.84Q61.20-16.84 61.20-14.96L61.20-14.96Q61.20-13.36 60.26-12.02Q59.32-10.68 57.68-9.84L57.68-9.84Q59.88-6.20 61.42-4.20Q62.96-2.20 64.28-1.34Q65.60-0.48 67.04-0.48L67.04-0.48ZM52.24-9.68Q53.12-9.60 53.80-9.60L53.80-9.60Q56.20-9.60 57.14-10.68Q58.08-11.76 58.08-13.88L58.08-13.88Q58.08-18.20 54.52-18.20L54.52-18.20Q53.12-18.20 52.68-17.60Q52.24-17 52.24-15.40L52.24-15.40L52.24-9.68Z M78.48-19.20Q80-19.20 81.74-18.90Q83.48-18.60 84.56-18.04L84.56-18.04Q84.84-17.92 84.92-17.80Q85-17.68 85.04-17.36L85.04-17.36L85.36-13.24Q85.36-13.12 85.14-13.08Q84.92-13.04 84.88-13.20L84.88-13.20Q82.96-18.52 77.76-18.52L77.76-18.52Q75.72-18.52 74.18-17.44Q72.64-16.36 71.78-14.42Q70.92-12.48 70.92-10.04L70.92-10.04Q70.92-7.56 71.78-5.30Q72.64-3.04 74.42-1.60Q76.20-0.16 78.76-0.16L78.76-0.16Q81.08-0.16 82.68-1.48Q84.28-2.80 85.24-5.60L85.24-5.60Q85.28-5.76 85.50-5.72Q85.72-5.68 85.72-5.56L85.72-5.56L85.28-1.32Q85.24-1 85.16-0.88Q85.08-0.76 84.72-0.60L84.72-0.60Q81.64 0.48 78.32 0.48L78.32 0.48Q74.52 0.48 72.06-1.04Q69.60-2.56 68.52-4.84Q67.44-7.12 67.44-9.44L67.44-9.44Q67.44-12.20 68.88-14.42Q70.32-16.64 72.86-17.92Q75.40-19.20 78.48-19.20L78.48-19.20Z M94.92-3.24Q94.92-2.04 95.12-1.46Q95.32-0.88 95.90-0.68Q96.48-0.48 97.76-0.48L97.76-0.48Q97.88-0.48 97.88-0.24Q97.88 0 97.76 0L97.76 0Q96.60 0 95.96-0.04L95.96-0.04L93.40-0.08L90.92-0.04Q90.24 0 89.04 0L89.04 0Q88.96 0 88.96-0.24Q88.96-0.48 89.04-0.48L89.04-0.48Q90.32-0.48 90.92-0.68Q91.52-0.88 91.74-1.46Q91.96-2.04 91.96-3.24L91.96-3.24L91.96-15.48Q91.96-16.68 91.74-17.24Q91.52-17.80 90.92-18.02Q90.32-18.24 89.04-18.24L89.04-18.24Q88.96-18.24 88.96-18.48Q88.96-18.72 89.04-18.72L89.04-18.72L90.92-18.68Q92.44-18.60 93.40-18.60L93.40-18.60Q94.40-18.60 96-18.68L96-18.68L97.76-18.72Q97.88-18.72 97.88-18.48Q97.88-18.24 97.76-18.24L97.76-18.24Q96.52-18.24 95.94-18Q95.36-17.76 95.14-17.18Q94.92-16.60 94.92-15.40L94.92-15.40L94.92-3.24Z M104.36-15.56Q104.36-14.40 104.98-13.52Q105.60-12.64 106.48-12.06Q107.36-11.48 108.96-10.64L108.96-10.64Q110.60-9.80 111.62-9.12Q112.64-8.44 113.34-7.42Q114.04-6.40 114.04-5L114.04-5Q114.04-3.48 113.18-2.22Q112.32-0.96 110.76-0.24Q109.20 0.48 107.16 0.48L107.16 0.48Q105.64 0.48 104.26 0.10Q102.88-0.28 101.96-0.92L101.96-0.92Q101.64-1.12 101.64-1.72L101.64-1.72L101.28-5.88Q101.28-6.04 101.48-6.08Q101.68-6.12 101.76-5.96L101.76-5.96Q102.56-3.64 104.22-1.94Q105.88-0.24 107.92-0.24L107.92-0.24Q109.24-0.24 110.20-1.02Q111.16-1.80 111.16-3.44L111.16-3.44Q111.16-4.72 110.52-5.70Q109.88-6.68 108.92-7.34Q107.96-8 106.44-8.84L106.44-8.84Q104.88-9.68 103.92-10.34Q102.96-11 102.30-11.98Q101.64-12.96 101.64-14.28L101.64-14.28Q101.64-16.56 103.50-17.88Q105.36-19.20 108-19.20L108-19.20Q110.24-19.20 112.28-18.28L112.28-18.28Q112.64-18.12 112.74-17.98Q112.84-17.84 112.88-17.56L112.88-17.56L113.04-14Q113.04-13.84 112.84-13.80Q112.64-13.76 112.56-13.88L112.56-13.88Q112.36-14.76 111.66-15.84Q110.96-16.92 109.82-17.70Q108.68-18.48 107.28-18.48L107.28-18.48Q105.84-18.48 105.10-17.68Q104.36-16.88 104.36-15.56L104.36-15.56Z M120.44-15.56Q120.44-14.40 121.06-13.52Q121.68-12.64 122.56-12.06Q123.44-11.48 125.04-10.64L125.04-10.64Q126.68-9.80 127.70-9.12Q128.72-8.44 129.42-7.42Q130.12-6.40 130.12-5L130.12-5Q130.12-3.48 129.26-2.22Q128.40-0.96 126.84-0.24Q125.28 0.48 123.24 0.48L123.24 0.48Q121.72 0.48 120.34 0.10Q118.96-0.28 118.04-0.92L118.04-0.92Q117.72-1.12 117.72-1.72L117.72-1.72L117.36-5.88Q117.36-6.04 117.56-6.08Q117.76-6.12 117.84-5.96L117.84-5.96Q118.64-3.64 120.30-1.94Q121.96-0.24 124-0.24L124-0.24Q125.32-0.24 126.28-1.02Q127.24-1.80 127.24-3.44L127.24-3.44Q127.24-4.72 126.60-5.70Q125.96-6.68 125-7.34Q124.04-8 122.52-8.84L122.52-8.84Q120.96-9.68 120-10.34Q119.04-11 118.38-11.98Q117.72-12.96 117.72-14.28L117.72-14.28Q117.72-16.56 119.58-17.88Q121.44-19.20 124.08-19.20L124.08-19.20Q126.32-19.20 128.36-18.28L128.36-18.28Q128.72-18.12 128.82-17.98Q128.92-17.84 128.96-17.56L128.96-17.56L129.12-14Q129.12-13.84 128.92-13.80Q128.72-13.76 128.64-13.88L128.64-13.88Q128.44-14.76 127.74-15.84Q127.04-16.92 125.90-17.70Q124.76-18.48 123.36-18.48L123.36-18.48Q121.92-18.48 121.18-17.68Q120.44-16.88 120.44-15.56L120.44-15.56Z M148.00-5.32Q148.04-5.44 148.26-5.44Q148.48-5.44 148.48-5.32L148.48-5.32Q148.20-2.44 148.20-0.60L148.20-0.60Q148.20-0.28 148.08-0.14Q147.96 0 147.60 0L147.60 0L132.80 0Q132.72 0 132.72-0.24Q132.72-0.48 132.80-0.48L132.80-0.48Q134.08-0.48 134.66-0.68Q135.24-0.88 135.46-1.46Q135.68-2.04 135.68-3.24L135.68-3.24L135.68-15.48Q135.68-16.68 135.46-17.24Q135.24-17.80 134.64-18.02Q134.04-18.24 132.80-18.24L132.80-18.24Q132.72-18.24 132.72-18.48Q132.72-18.72 132.80-18.72L132.80-18.72L146.88-18.72Q147.28-18.72 147.28-18.40L147.28-18.40L147.32-15.92Q147.36-15.16 147.36-14L147.36-14Q147.36-13.88 147.12-13.88Q146.88-13.88 146.88-14L146.88-14Q146.52-15.84 145.22-17.02Q143.92-18.20 142.24-18.20L142.24-18.20L141.36-18.20Q140.16-18.20 139.58-17.98Q139.00-17.76 138.80-17.20Q138.60-16.64 138.60-15.44L138.60-15.44L138.60-10Q142.20-10.04 143.62-10.22Q145.04-10.40 145.24-10.40L145.24-10.40Q145.48-10.40 145.48-9.52L145.48-9.52Q145.48-8.60 145.24-8.60L145.24-8.60Q145.08-8.60 143.64-8.80Q142.20-9 138.60-9.08L138.60-9.08L138.60-3.40Q138.60-2.24 138.80-1.66Q139.00-1.08 139.58-0.86Q140.16-0.64 141.36-0.64L141.36-0.64L142.84-0.64Q144.56-0.64 146.00-1.96Q147.44-3.28 148.00-5.32L148.00-5.32Z"/></g>
</svg>
</g><g opacity="1" transform="rotate(0 0 48.7337)">
<svg width="19.2258" height="1.2817" x="0" y="48.7337" version="1.1" preserveAspectRatio="none" viewBox="0 0 19.2258 1.2817">
  <rect x="0" y="0" width="19.2258" height="1.2817" class="shape shapeStroke-str" style="stroke-width:0;" rx="0%" ry="0%" />
</svg>
</g><g opacity="1" transform="rotate(0 106 0)">
<svg width="100" height="98.7494" x="106" y="0" version="1.1" preserveAspectRatio="none" viewBox="20 21 160 157.99900817871094">
  <g transform="matrix(1 0 0 1 0 0)" ><g><path d="M136.535 99.999a181.02 181.02 0 0 1 3.976-4.148c19.535-19.73 39.291-31.105 39.489-31.217l-.474-1.374c-18.263.992-42.469 4.432-60.26 14.78-14.599-22.561-18.32-42.641-18.389-57.04l-.881.004-.874-.004c-.105 21.803-8.109 41.135-18.408 57.029-17.786-10.337-41.974-13.776-60.23-14.768L20 64.633c.196.112 19.927 11.468 39.461 31.189a188.03 188.03 0 0 1 4.004 4.181 183.013 183.013 0 0 1-3.975 4.147c-19.535 19.729-39.291 31.105-39.489 31.216l.478 1.373c18.263-.991 42.465-4.432 60.254-14.778 14.599 22.56 18.318 42.639 18.389 57.038l.808-.004.949.004c.105-21.802 8.109-41.134 18.408-57.028 17.787 10.338 41.977 13.777 60.232 14.768l.48-1.372c-.198-.113-19.955-11.488-39.489-31.216a187.658 187.658 0 0 1-3.975-4.152zm2.959-5.215a185.993 185.993 0 0 0-3.959 4.134 171.253 171.253 0 0 1-7.191-8.361c10.591-9.11 25.557-18.228 46.48-24.45-6.996 4.515-21.223 14.436-35.33 28.677zm-4.965 5.22a173.093 173.093 0 0 0-7.298 8.477 97.283 97.283 0 0 1-8.474-8.479 97.281 97.281 0 0 1 8.48-8.485 173.208 173.208 0 0 0 7.292 8.487zm38.162-34.79c-20.228 6.262-34.835 15.225-45.27 24.193a149.214 149.214 0 0 1-7.346-10.132c15.371-8.923 35.671-12.624 52.616-14.061zm-46.365 25.148a98.785 98.785 0 0 0-8.542 8.517 86.953 86.953 0 0 1-8.418-11.65 48.65 48.65 0 0 1 3.835-3.338 58.865 58.865 0 0 1 5.622-3.871 152.991 152.991 0 0 0 7.503 10.342zm-27.199 9.639c-.136.546-1.525 5.548-7.441 11.644a90.59 90.59 0 0 0-4.6-6.791 91.222 91.222 0 0 0-3.891-4.855 91.2 91.2 0 0 0 3.891-4.854 90.821 90.821 0 0 0 4.585-6.764c5.912 6.088 7.318 11.079 7.456 11.62zM92.497 87c4.483-7.624 6.601-13.902 7.502-17.166.901 3.264 3.019 9.542 7.502 17.166-4.577 4.64-6.639 8.719-7.502 10.95-.862-2.231-2.923-6.31-7.502-10.95zM100 102.052c.863 2.231 2.924 6.31 7.502 10.95-4.484 7.625-6.602 13.904-7.502 17.167-.901-3.263-3.018-9.541-7.502-17.167 4.578-4.641 6.64-8.72 7.502-10.95zm.874-2.052c.103-.427 1.443-5.514 7.41-11.694a90.527 90.527 0 0 0 4.63 6.839 91.263 91.263 0 0 0 3.892 4.856 91.2 91.2 0 0 0-3.891 4.854 90.821 90.821 0 0 0-4.585 6.764c-5.908-6.082-7.317-11.069-7.456-11.619zm-.882-69.075c2.04 18.076 9.201 34.224 18.032 47.862a60.074 60.074 0 0 0-5.861 4.049 51.066 51.066 0 0 0-3.572 3.084c-6.176-10.656-7.705-18.669-7.724-18.768l-.867.159-.867-.159c-.036.198-1.596 8.107-7.784 18.714a51.092 51.092 0 0 0-3.511-3.029 60.323 60.323 0 0 0-5.843-4.039c11.668-18.045 16.467-34.54 17.997-47.873zM81.14 80.107c3.894 2.389 6.967 4.826 9.384 7.142a90.485 90.485 0 0 1-8.371 11.561 99.065 99.065 0 0 0-8.464-8.434 151.699 151.699 0 0 0 7.451-10.269zm.041 19.823a97.702 97.702 0 0 1-8.455 8.51 172.908 172.908 0 0 0-7.256-8.442 173.093 173.093 0 0 0 7.298-8.477 97.037 97.037 0 0 1 8.413 8.409zm-1.319-20.589a151.88 151.88 0 0 1-7.296 10.05C62.13 80.427 47.527 71.469 27.305 65.21c25.355 2.129 41.857 7.89 52.557 14.131zM60.506 94.783C46.398 80.541 32.172 70.621 25.177 66.106 46.095 72.325 61.06 81.441 71.65 90.549a172.122 172.122 0 0 1-7.179 8.368 184.186 184.186 0 0 0-3.965-4.134zm0 10.434c1.34-1.358 2.66-2.736 3.959-4.133a171.107 171.107 0 0 1 7.158 8.321c-10.847 9.389-25.824 18.361-46.447 24.491 6.994-4.515 21.221-14.435 35.33-28.679zm-33.207 29.574c20.233-6.262 34.843-15.226 45.281-24.196a149.877 149.877 0 0 1 7.312 10.08c-10.696 6.236-27.204 11.989-52.593 14.116zm46.375-25.153a98.785 98.785 0 0 0 8.542-8.517 87.034 87.034 0 0 1 8.387 11.6c-2.427 2.336-5.523 4.797-9.46 7.208a153.526 153.526 0 0 0-7.469-10.291zm26.333 59.441c-2.039-18.078-9.2-34.227-18.031-47.866a60.074 60.074 0 0 0 5.861-4.049 51.066 51.066 0 0 0 3.572-3.084c6.174 10.655 7.705 18.665 7.723 18.766l.864-.158.87.159c.019-.1 1.549-8.112 7.724-18.767a51.244 51.244 0 0 0 3.571 3.083 60.137 60.137 0 0 0 5.843 4.038c-11.668 18.049-16.467 34.545-17.997 47.878zm18.853-49.184c-3.928-2.409-7.02-4.868-9.447-7.202a87.098 87.098 0 0 1 8.371-11.571 98.745 98.745 0 0 0 8.527 8.504 151.197 151.197 0 0 0-7.451 10.269zm1.279.764a152.259 152.259 0 0 1 7.297-10.05c10.435 8.964 25.038 17.921 45.258 24.18-25.354-2.128-41.855-7.889-52.555-14.13zm8.211-11.207a172.122 172.122 0 0 1 7.179-8.368c1.3 1.398 2.621 2.775 3.964 4.132 14.108 14.241 28.334 24.162 35.329 28.677-20.917-6.218-35.882-15.334-46.472-24.441z" data-color="1" class="a0QRBMvWAhcolors-0"></path></g></g>
</svg>
</g></svg>